<svg xmlns="http://www.w3.org/2000/svg" width="1000" height="1000" viewBox="0 0 1000 1000"><path fill="#1B1464" d="M500 10C229.38 10 10 229.38 10 500s219.38 490 490 490 490-219.38 490-490S770.62 10 500 10zm407.998 442.999c-16.666.333-28 1-46.99 6.593-12.294 3.621-16.676 5.073-31.499 13.499-4.854 2.759-25.616 7.98-29.999 9-12.51 2.909-25.933-.756-39.211-.011 9.7-5.081 37.366-13.081 49.711-19.488 10.256-5.323 20.56-24.093 23.999-38.998 4.499-19.499-3.739-56.786-4.505-72.355-1.255-25.484 8.007-31.618 27.086-44.634 1.334-.91 2.738-1.45 4.1-1.792a410.788 410.788 0 0 1 17.124 35.621c15.503 36.655 25.891 73.118 30.184 112.565zm-63.555-175.533c-16.733 5.59-34.663 15.632-49.064 25.001-22.721 14.784-23.618 50.679-25.879 76.533-4.168 47.667 14.419 44.899-56.985 98.591-11.183 8.409-36.519 9.506-49.497 12-12.93 2.484-23.262.52-37.271-.227 13.272-10.273 46.44-34.169 55.465-44.669 5.662-6.587 12.766-16.826 19.289-34.194 6.984-18.594 10.647-47.789 7.516-69.402-14.729-101.619-35.232-156.962 9.463-188.751 26.101 16.356 50.338 35.642 72.436 57.74 20.664 20.664 38.873 43.198 54.527 67.378zM690.676 136.938c-6.66 9.15-15.756 20.989-21.676 28.062-17.064 20.388-21.557 23.151-29.5 37-9.123 15.902-8.5 41.99-8.5 60.5 0 45.698 12.5 67.5 9.519 111.596-1.816 26.868-3.261 50.856-22.499 76.496-8.513 11.346-23.623 21.606-37.881 24.955-.047-.26-.1-.518-.147-.777 1.284-.75 2.483-1.552 2.03-1.679l-2.085 1.39c-3-16.032-8.805-30.914-17.085-43.334-11.806-17.708-28.033-29.39-45.852-33.407V382s27.5 8.023 46.5 2.023 25.531-5.259 37.5-23.961c12.5-19.531 10-35 10-35s-3-34.812-13-60.812-42-90.75-42-90.75l-44.698-83.344c51.387 1.375 101.212 12.13 148.265 32.031a411.136 411.136 0 0 1 31.109 14.751zm-155.702 530.27c3.707-8.365 14.304-7.62 21.294-4.315 7.352 3.475 12.062 10.424 14.215 18.126 3.109 11.122.013 22.749-1.987 33.772-2.226 12.274-4.242 27.191-11.495 37.709 0 0-10 21.5-23.5 37.5s-33 33-33 33l-36-38c-14.404-19.466-26.943-36.82-32.937-60.831-3.85-15.425-2.483-33.757 2.936-48.666 2.726-7.496 11.007-18.448 20.171-16.914 7.646 1.28 12.37 10.95 13.33 17.911 2 14.5-14.5 22-21.5 24.5l6.5 4.5s13.769 5.773 22.468 6.438c.531.041 1.043.062 1.532.062 8.5 0 11.5-2.5 11.5-.5s12.5 30 12.5 30c3.996-9.99 8.144-19.934 11.971-29.987 8.428 1.118 16.735.453 24.795-2.38 1.699-.598 15.723-8.054 16.234-7.633-10.556-8.672-26.313-17.832-19.027-34.292zM468 323.5c3 7-5.684 16.631-13.33 17.911-9.165 1.534-17.446-9.418-20.171-16.914-5.419-14.909-6.786-33.241-2.936-48.666 5.994-24.01 18.533-41.365 32.937-60.831l36-38s20 18 33.5 34 23 36.5 23 36.5c7.253 10.518 9.27 25.434 11.495 37.708 2 11.024 5.097 22.65 1.987 33.773-2.152 7.702-6.863 14.651-14.215 18.126-6.99 3.305-17.587 4.049-21.294-4.316-7.285-16.459 8.472-25.62 19.026-34.292-.512.421-14.535-7.035-16.234-7.633-8.06-2.833-16.367-3.499-24.795-2.38-3.827-10.054-7.975-19.998-11.971-29.987 0 0-13.13 31.898-12.5 30 .166-.5-12.501-.479-13.032-.438-8.698.666-22.467 6.439-22.467 6.439l-6.5 4.5c7 2.5 15.734 11.046 21.5 24.5zm44.93 211.974c-3.799 5.697-7.667 8.248-9.814 8.248-2.148 0-6.017-2.551-9.814-8.246-5.953-8.93-9.367-21.878-9.367-35.524s3.414-26.595 9.366-35.522c3.798-5.698 7.667-8.249 9.815-8.249 2.147 0 6.016 2.55 9.813 8.247 5.952 8.929 9.366 21.877 9.366 35.524 0 13.646-3.414 26.594-9.365 35.522zM491.218 90.098l-21.215 39.419-51.495 104.514-19.992 56.531s-12.984 53.062 10.016 78.062c18.486 20.093 50.031 19.125 69.531 14.125 14.169-3.633 8.038 12.205 6.245 16.301-15.874 4.924-30.22 16.032-40.93 32.096-8.189 12.284-13.956 26.977-16.985 42.809l-1.298-.865c-.357.1.31.618 1.235 1.2-.066.347-.135.693-.197 1.041-14.006-3.548-28.69-13.617-37.036-24.739-19.238-25.64-22.499-49.567-22.499-76.496 0-43.362 7.5-65.296 7.5-110.995 0-18.51-1.708-45-10.83-60.902-7.944-13.849-11.668-17.094-26.716-39.588-5.643-8.436-15.514-20.581-22.043-28.371a411.547 411.547 0 0 1 25.927-12.054c47.82-20.226 98.504-31.003 150.782-32.088zm-205.114 60.017c47.263 21.372 43.521 90.299 17.396 177.385-6 20-4.1 63.906 2.5 83.5 5.922 17.583 14.243 27.107 19.904 33.694 9.025 10.5 42.193 34.396 55.466 44.669-14.01.747-24.342 2.71-37.271.227-12.979-2.493-41.42-3.922-49.498-12-47.998-47.998-47.697-63.563-55.199-102.785-4.875-25.491-4.945-57.555-27.666-72.338-15.458-10.058-36.618-22.027-54.575-27.443 15.292-23.254 32.958-44.972 52.925-64.938 23.107-23.107 48.547-43.15 76.018-59.971zM138.373 306.598c2.693-.123 7.093-1.045 12.153.007 22.613 4.703 28.341 19.15 27.087 44.634-.767 15.569-9.005 52.856-4.505 72.355 3.439 14.905 15.234 31.164 23.999 38.998 10.696 9.561 40.675 13.469 49.711 19.488-13.279-.746-27.119 4.251-39.817 1.42-16.105-3.591-23.656-6.7-29.393-10.409C162 463 158 462.5 146 458c-21.089-7.908-34.625-5.194-53.654-2.23a405.582 405.582 0 0 1 29.841-115.335 410.667 410.667 0 0 1 16.186-33.837zM92.115 542.047c15.238-.372 47.765-3.293 65.993-7.459 15.063-3.443 33.37-18.672 49.892-21.588 25.499-4.5 25.917-4.153 45.572 2.012-21.47 13.984-45.062 11.893-65.465 30.076-17.107 15.246-23.742 29.093-20.606 50.412 2.5 17 20.385 50.951 17.606 62.082-4.494 18.004-29.44 36.752-41.998 38.998-1.053.188-1.93.376-2.661.647a410.83 410.83 0 0 1-18.261-37.661c-15.907-37.608-25.969-76.987-30.072-117.519zm65.829 184.121c8.038-7.033 16.574-10.887 29.799-16.46 15.102-6.365 28.434-14.716 36.361-28.127 16.895-28.581 16.499-61.497 22.499-91.496 5.917-29.584 27.278-47.637 52.497-65.996 20.007-14.564 50.478-14.999 76.317-15.001-13.195 2.218-27.073 22.435-41.819 34.5-12 13.499-20.61 23.073-29.999 52.497-13.268 41.582-6.283 47.485-4.5 68.996C301 688 357.928 737.881 335 778c-4 7-34.667 50.334-48.175 72.334-27.749-16.911-53.429-37.109-76.739-60.42-19.626-19.626-37.03-40.941-52.142-63.746zm163.088 142.826c4.634-11.994 11.895-21.699 14.066-25.422 10.5-17.999 37.499-50.997 38.998-79.496 1.816-34.509-3.065-68.749-4.5-101.994-1.265-29.317-.835-69.442 10.873-95.662 7.01-15.697 26.397-41.685 45.106-45.198 2.725 17.631 8.803 34.036 17.802 47.535 10.698 16.046 25.026 27.147 40.88 32.08 1.722 3.901 8.112 20.082-6.195 16.413-19.5-5-51.045-5.969-69.531 14.125-23 25-10.016 78.062-10.016 78.062l19.992 56.531 51.495 104.514 21.215 39.42c-52.278-1.085-102.962-11.862-150.784-32.089a412.902 412.902 0 0 1-19.401-8.819zm190.27 40.851L556 826.5s32-64.75 42-90.75 13-60.812 13-60.812 2.5-15.469-10-35c-11.969-18.701-18.5-17.961-37.5-23.961S517 618 517 618v-15.837c17.818-4.018 34.046-15.698 45.853-33.408 9.021-13.531 15.105-29.981 17.821-47.662 18.973 2.854 38.854 29.387 45.972 45.327 11.708 26.22 12.138 66.345 10.873 95.662-1.435 33.245-6.315 67.485-4.499 101.994 1.499 28.499 28.498 61.497 38.998 79.496 2.056 3.524 9.078 13.242 16.319 20.721a411.79 411.79 0 0 1-28.771 13.521c-47.052 19.901-96.878 30.656-148.264 32.031zm202.759-60.062c-9.577-10.226-25.641-28.001-35.945-65.783-6.66-24.421 29.816-101.668 29.9-118.919.106-22.271 3-26.998-4.5-68.996-5.43-30.404-18-38.998-29.999-52.497-14.746-12.065-28.624-32.282-41.818-34.5 25.839.002 56.311.437 76.317 15.001 25.219 18.359 46.58 36.412 52.496 65.996 6 29.999 8.902 63.039 22.5 91.496 6.716 14.057 22.896 18.784 36.361 28.127 8.456 5.867 17.842 7.308 25.559 12.081-15.761 24.464-34.139 47.246-55.018 68.125-23.06 23.061-48.445 43.069-75.853 59.869zm146.404-154.192c-11.512-4.388-34.434-21.896-38.455-38.009-2.779-11.131 16.617-49.167 16.498-59.885-.237-21.547-7.025-36.263-19.498-52.609-16.58-21.728-43.996-16.092-65.466-30.076 19.655-6.165 20.468-2.923 45.966 1.577 16.522 2.916 34.436 14.556 49.498 17.999 15.752 3.601 42.183 6.271 58.907 7.169-4.083 40.635-14.157 80.111-30.102 117.81a410.555 410.555 0 0 1-17.348 36.024z"/></svg>